<?xml version="1.0" encoding="utf-8"?>
<!-- Uploaded to: SVG Repo, www.svgrepo.com, Generator: SVG Repo Mixer Tools -->
<svg xmlns="http://www.w3.org/2000/svg" xmlns:xlink="http://www.w3.org/1999/xlink" version="1.1" id="internet"  viewBox="0 0 200 233.9375" enable-background="new 0 0 200 233.9375" xml:space="preserve" width="512" height="512">
<g>
	<path fill="#5CB0FF" d="M96,108.9688V57.375c-16.0488,3.0725-28.9089,24.3853-31.4875,51.5938H96z"/>
	<path fill="#5CB0FF" d="M96,180.5625v-63.5938H64.0588c-0.0125,0.6699-0.0588,1.325-0.0588,2   C64,150.8254,78.0261,177.1216,96,180.5625z"/>
	<path fill="#5CB0FF" d="M104,180.5625c17.9739-3.4409,32-29.7371,32-61.5938c0-0.675-0.0464-1.3301-0.0588-2H104V180.5625z"/>
	<path fill="#5CB0FF" d="M143.5208,108.9688h19.9238c-3.1343-24.967-20.6609-45.5063-44.0222-52.9668   C132.3018,65.8699,141.4756,85.3372,143.5208,108.9688z"/>
	<path fill="#5CB0FF" d="M104,57.375v51.5938h31.4875C132.9089,81.7603,120.0488,60.4475,104,57.375z"/>
	<path fill="#5CB0FF" d="M144,118.9688c0,23.3098-6.8479,43.5557-17.5508,56.209C148.563,165.0874,164,142.8198,164,116.9688   h-20.0615C143.95,117.6399,144,118.2925,144,118.9688z"/>
	<path fill="#5CB0FF" d="M56.4792,108.9688c2.0452-23.6316,11.219-43.0989,24.0984-52.9668   c-23.3613,7.4604-40.8879,27.9998-44.0222,52.9668H56.4792z"/>
	<path fill="#5CB0FF" d="M56,118.9688c0-0.6763,0.05-1.3289,0.0615-2H36c0,25.8508,15.437,48.1187,37.5505,58.209   C62.8477,162.5247,56,142.2786,56,118.9688z"/>
	<path fill="#1C71DA" d="M104,45.1714v-0.2026h-8v0.2026c-37.8354,2.0947-68,33.4482-68,71.7974c0,39.6992,32.3008,72,72,72   s72-32.3008,72-72C172,78.6196,141.8354,47.2661,104,45.1714z M163.4446,108.9688h-19.9238   c-2.0452-23.6316-11.219-43.0989-24.0984-52.9668C142.7837,63.4624,160.3103,84.0017,163.4446,108.9688z M136,118.9688   c0,31.8567-14.0261,58.1528-32,61.5938v-63.5938h31.9412C135.9536,117.6387,136,118.2937,136,118.9688z M64.0588,116.9688H96   v63.5938c-17.9739-3.4409-32-29.7371-32-61.5938C64,118.2937,64.0464,117.6387,64.0588,116.9688z M96,57.375v51.5938H64.5125   C67.0911,81.7603,79.9512,60.4475,96,57.375z M104,108.9688V57.375c16.0488,3.0725,28.9089,24.3853,31.4875,51.5938H104z    M80.5776,56.002c-12.8794,9.8679-22.0532,29.3352-24.0984,52.9668H36.5554C39.6897,84.0017,57.2163,63.4624,80.5776,56.002z    M36,116.9688h20.0615c-0.0115,0.6711-0.0615,1.3237-0.0615,2c0,23.3098,6.8477,43.5559,17.5505,56.209   C51.437,165.0874,36,142.8196,36,116.9688z M126.4492,175.1777C137.1521,162.5244,144,142.2786,144,118.9688   c0-0.6763-0.05-1.3289-0.0615-2H164C164,142.8198,148.563,165.0874,126.4492,175.1777z"/>
	<path fill="#1C71DA" d="M100.6704,16.9858l10.1577-10.1577c1.5625-1.5625,1.5625-4.0938,0-5.6562s-4.0938-1.5625-5.6562,0   L88.2031,18.1406c-1.5625,1.5625-1.5625,4.0938,0,5.6562l16.9688,16.9688c0.7812,0.7812,1.8047,1.1719,2.8281,1.1719   s2.0469-0.3906,2.8281-1.1719c1.5625-1.5625,1.5625-4.0938,0-5.6562l-10.1228-10.1228C151.1108,25.3689,192,66.4749,192,116.9688   c0,2.2109,1.7891,4,4,4s4-1.7891,4-4C200,62.053,155.502,17.3496,100.6704,16.9858z"/>
	<path fill="#1C71DA" d="M94.8281,193.1719c-1.5625-1.5625-4.0938-1.5625-5.6562,0s-1.5625,4.0938,0,5.6562l10.1228,10.1228   C48.8892,208.5686,8,167.4626,8,116.9688c0-2.2109-1.7891-4-4-4s-4,1.7891-4,4c0,54.9158,44.498,99.6191,99.3296,99.9829   l-10.1577,10.1577c-1.5625,1.5625-1.5625,4.0938,0,5.6562c0.7812,0.7812,1.8047,1.1719,2.8281,1.1719s2.0469-0.3906,2.8281-1.1719   l16.9688-16.9688c1.5625-1.5625,1.5625-4.0938,0-5.6562L94.8281,193.1719z"/>
</g>
<path fill="#FF5D5D" d="M160.252,28.791c-1.0234,0-2.0479-0.3906-2.8281-1.1719c-1.5625-1.5615-1.5625-4.0947,0-5.6562  l14.1426-14.1426c1.5605-1.5625,4.0957-1.5625,5.6562,0c1.5625,1.5615,1.5625,4.0947,0,5.6562l-14.1426,14.1426  C162.2998,28.4004,161.2754,28.791,160.252,28.791z"/>
<path fill="#FF5D5D" d="M174.3945,28.791c-1.0234,0-2.0469-0.3906-2.8281-1.1719l-14.1426-14.1416  c-1.5625-1.5615-1.5625-4.0947,0-5.6562c1.5605-1.5625,4.0938-1.5625,5.6562,0l14.1426,14.1416  c1.5625,1.5615,1.5625,4.0947,0,5.6562C176.4424,28.4004,175.418,28.791,174.3945,28.791z"/>
<path fill="#00D40B" d="M178.252,212.791c-7.7197,0-14-6.2803-14-14s6.2803-14,14-14s14,6.2803,14,14  S185.9717,212.791,178.252,212.791z M178.252,192.791c-3.3086,0-6,2.6914-6,6s2.6914,6,6,6s6-2.6914,6-6  S181.5605,192.791,178.252,192.791z"/>
<path fill="#FFC504" d="M15.5664,75.418c-1.0234,0-2.0469-0.3906-2.8281-1.1719L1.4238,62.9326  c-0.75-0.75-1.1719-1.7676-1.1719-2.8281s0.4219-2.0781,1.1719-2.8281l11.3145-11.3135c1.5625-1.5625,4.0938-1.5625,5.6562,0  L29.708,57.2764c1.5625,1.5615,1.5625,4.0947,0,5.6562L18.3945,74.2461C17.6143,75.0273,16.5898,75.418,15.5664,75.418z   M9.9092,60.1045l5.6572,5.6572l5.6562-5.6572l-5.6562-5.6572L9.9092,60.1045z"/>
</svg>